<?xml version="1.0" encoding="utf-8"?>
<!-- Generator: Adobe Illustrator 25.2.1, SVG Export Plug-In . SVG Version: 6.00 Build 0)  -->
<svg version="1.1" id="Bold" xmlns="http://www.w3.org/2000/svg" xmlns:xlink="http://www.w3.org/1999/xlink" x="0px" y="0px"
	 viewBox="0 0 24 24" style="enable-background:new 0 0 24 24;" xml:space="preserve">
<style type="text/css">
	.st0{fill:#FFFFFF;}
</style>
<path class="st0" d="M11.6,3.5h-0.8l0,1.7h0.8c0.5,0,0.9-0.4,0.9-0.9C12.5,3.9,12.1,3.5,11.6,3.5z"/>
<path class="st0" d="M19.5,0h-15C2,0,0,2,0,4.5v15C0,22,2,24,4.5,24h12c1.2,0,2.3-0.5,3.2-1.3l3-3c0.8-0.8,1.3-2,1.3-3.2v-12
	C24,2,22,0,19.5,0z M14.6,6.9c0.2-0.2,0.5-0.2,0.8-0.1L15.5,7c0.2,0.2,0.5,0.4,0.8,0.5c0.3,0.1,0.7,0.1,1,0c0.2-0.1,0.4-0.2,0.5-0.4
	c0.1-0.2,0-0.4-0.1-0.6c-0.1-0.1-0.3-0.2-0.5-0.3c-0.4-0.2-0.8-0.3-1.2-0.5c-0.4-0.1-0.7-0.4-1-0.7c-0.2-0.3-0.3-0.7-0.2-1.1
	c0-0.2,0.1-0.4,0.2-0.6c0.2-0.4,0.6-0.7,1-0.8c0.8-0.2,1.7-0.1,2.4,0.3c0.2,0.1,0.3,0.2,0.4,0.4c0.2,0.2,0.1,0.5,0,0.7
	c-0.2,0.3-0.6,0.2-0.9,0.1c-0.3-0.1-0.5-0.2-0.8-0.3c-0.2-0.1-0.4-0.1-0.6-0.1c-0.2,0-0.4,0.1-0.5,0.3c-0.1,0.2,0,0.5,0.2,0.6
	c0.2,0.2,0.4,0.3,0.6,0.3C17,4.8,17.3,4.9,17.5,5c0.3,0.1,0.6,0.3,0.9,0.5c0.5,0.4,0.7,1,0.6,1.6c-0.2,1-1.1,1.7-2.2,1.7
	c-0.9,0-1.7-0.4-2.3-1C14.3,7.5,14.3,7.2,14.6,6.9C14.6,6.9,14.6,6.9,14.6,6.9z M9.5,2.9C9.5,2.9,9.5,2.9,9.5,2.9c0-0.1,0-0.2,0-0.2
	c0-0.1,0.1-0.1,0.1-0.2c0,0,0,0,0,0l0,0c0.1-0.1,0.1-0.1,0.2-0.1c0.1,0,0.2,0,0.2,0h1.5c1.2,0,2.1,0.9,2.2,2.1
	c0,1.2-0.9,2.1-2.1,2.2c0,0-0.1,0-0.1,0h-0.8v1.7c0,0.3-0.3,0.6-0.6,0.6S9.5,8.5,9.5,8.2L9.5,2.9z M4.8,2.9c0-0.3,0.3-0.6,0.6-0.6
	h2.2c0.3,0,0.6,0.3,0.6,0.6S8,3.5,7.6,3.5H6.1v1.4h1.4c0.3,0,0.6,0.3,0.6,0.6S7.8,6.2,7.5,6.2H6.1v1.4h1.6c0.3,0,0.6,0.3,0.6,0.6
	c0,0.3-0.3,0.6-0.6,0.6H5.4c-0.3,0-0.6-0.3-0.6-0.6L4.8,2.9z M21,15h-4c-1.1,0-2,0.9-2,2v4H4.5C3.7,21,3,20.3,3,19.5V11h18V15z"/>
</svg>
