<?xml version="1.0" encoding="utf-8"?>
<!-- Generator: Adobe Illustrator 25.2.1, SVG Export Plug-In . SVG Version: 6.00 Build 0)  -->
<svg version="1.1" id="Layer_1" xmlns="http://www.w3.org/2000/svg" xmlns:xlink="http://www.w3.org/1999/xlink" x="0px" y="0px"
	 viewBox="0 0 24 24" style="enable-background:new 0 0 24 24;" xml:space="preserve">
<style type="text/css">
	.st0{fill:#F7FF8D;}
</style>
<path class="st0" d="M24,3.9c0-1.1-0.4-2.1-1.1-2.8c-1.5-1.5-4-1.5-5.5,0L7.2,11c-1.6-0.1-3.2,0.6-4.4,1.7l0,0
	C1.1,14.4,0.2,18.5,0,20c-0.3,1.9,1.1,3.7,3,4c0.2,0,0.3,0,0.5,0s0.3,0,0.5,0c1.5-0.2,5.6-1.1,7.2-2.7c1.3-1.3,1.9-3.1,1.7-4.9
	l9.9-9.6C23.6,6,24,5,24,3.9z M9.1,19.1c-0.7,0.7-3.3,1.6-5.5,1.9c-0.3,0-0.5-0.1-0.6-0.4c0-0.1,0-0.1,0-0.2
	c0.3-2.2,1.2-4.9,1.9-5.5c1.2-1.2,3.1-1.2,4.2,0c0.3,0.3,0.6,0.8,0.7,1.2c0,0.1,0.1,0.2,0.1,0.4C10.1,17.4,9.8,18.4,9.1,19.1z
	 M20.7,4.6l-9,8.8c-0.1-0.2-0.3-0.4-0.5-0.6c-0.3-0.3-0.5-0.5-0.9-0.7l9-8.8c0.4-0.4,0.9-0.3,1.3,0C21.1,3.6,21.1,4.2,20.7,4.6
	L20.7,4.6L20.7,4.6z"/>
</svg>
