<svg id="Bold" xmlns="http://www.w3.org/2000/svg" viewBox="0 0 24 24"><title>124 thumbs down</title><path d="M23.946,11.719l-1.057-5a5.525,5.525,0,0,0-5.381-4.363H5.5A5.507,5.507,0,0,0,0,7.857v5a5.506,5.506,0,0,0,5.5,5.5H7.581L9.094,21.32a4.012,4.012,0,0,0,3.628,2.18,3.951,3.951,0,0,0,3.9-4.615l-.09-.528h2.038a5.5,5.5,0,0,0,5.381-6.638ZM3,12.857v-5a2.5,2.5,0,0,1,2.5-2.5H7v10H5.5A2.5,2.5,0,0,1,3,12.857Zm17.507,1.575a2.49,2.49,0,0,1-1.942.925H12.973l.687,4.032a.935.935,0,0,1-.211.773.976.976,0,0,1-.779.338,1,1,0,0,1-.9-.543L10,16.5V5.357h7.508A2.508,2.508,0,0,1,19.953,7.34l1.058,5A2.49,2.49,0,0,1,20.507,14.432Z"/></svg>