<?xml version="1.0" encoding="utf-8"?>
<!-- Generator: Adobe Illustrator 25.2.1, SVG Export Plug-In . SVG Version: 6.00 Build 0)  -->
<svg version="1.1" id="Bold" xmlns="http://www.w3.org/2000/svg" xmlns:xlink="http://www.w3.org/1999/xlink" x="0px" y="0px"
	 viewBox="0 0 24 24" style="enable-background:new 0 0 24 24;" xml:space="preserve">
<style type="text/css">
	.st0{fill:#FFFFFF;}
</style>
<path class="st0" d="M22.5,17H20V8.5C20,6,18,4,15.5,4H7V1.5C7,0.7,6.3,0,5.5,0l0,0C4.7,0,4,0.7,4,1.5V4H1.5C0.7,4,0,4.7,0,5.5l0,0
	C0,6.3,0.7,7,1.5,7H4v8.5C4,18,6,20,8.5,20H17v2.5c0,0.8,0.7,1.5,1.5,1.5l0,0c0.8,0,1.5-0.7,1.5-1.5V20h2.5c0.8,0,1.5-0.7,1.5-1.5
	l0,0C24,17.7,23.3,17,22.5,17z M8.5,17C7.7,17,7,16.3,7,15.5V7h8.5C16.3,7,17,7.7,17,8.5V17H8.5z"/>
</svg>
