<?xml version="1.0" encoding="utf-8"?>
<!-- Generator: Adobe Illustrator 25.2.1, SVG Export Plug-In . SVG Version: 6.00 Build 0)  -->
<svg version="1.1" id="Layer_1" xmlns="http://www.w3.org/2000/svg" xmlns:xlink="http://www.w3.org/1999/xlink" x="0px" y="0px"
	 viewBox="0 0 24 24" style="enable-background:new 0 0 24 24;" xml:space="preserve">
<style type="text/css">
	.st0{fill:#FFFFFF;}
</style>
<path class="st0" d="M19,0h-8C8.2,0,6,2.2,6,5v6H5c-2.8,0-5,2.2-5,5v3c0,2.8,2.2,5,5,5h3c2.8,0,5-2.2,5-5v-1h6c2.8,0,5-2.2,5-5V5
	C24,2.2,21.8,0,19,0z M11,16c-1.7,0-3-1.3-3-3C9.7,13,11,14.3,11,16z M11,19c0,1.7-1.3,3-3,3H5c-1.7,0-3-1.3-3-3v-3c0-1.7,1.3-3,3-3
	h1c0,2.8,2.2,5,5,5V19z M22,13c0,1.7-1.3,3-3,3h-6c0-1-0.3-1.9-0.8-2.8L18,7.4V10c0,0.6,0.4,1,1,1s1-0.4,1-1V7c0-1.7-1.3-3-3-3h-3
	c-0.6,0-1,0.4-1,1s0.4,1,1,1h2.6l-5.8,5.8C9.9,11.3,9,11,8,11V5c0-1.7,1.3-3,3-3h8c1.7,0,3,1.3,3,3V13z"/>
</svg>
