<svg id="Bold" xmlns="http://www.w3.org/2000/svg" viewBox="0 0 24 24"><title>54 eps file</title><path d="M11.608,3.529H10.77l.006,1.723.832,0a.886.886,0,0,0,.889-.859A.887.887,0,0,0,11.608,3.529Z"/><path d="M19.5,0H4.5A4.505,4.505,0,0,0,0,4.5v15A4.505,4.505,0,0,0,4.5,24H16.484a4.467,4.467,0,0,0,3.182-1.318l3.016-3.015A4.472,4.472,0,0,0,24,16.485V4.5A4.505,4.505,0,0,0,19.5,0ZM14.6,6.922a.6.6,0,0,1,.761-.052l.127.1a2.653,2.653,0,0,0,.847.5,1.549,1.549,0,0,0,.975-.035.725.725,0,0,0,.456-.409.562.562,0,0,0-.149-.578,1.3,1.3,0,0,0-.482-.276c-.415-.152-.824-.315-1.233-.484a1.927,1.927,0,0,1-.96-.735,1.612,1.612,0,0,1-.235-1.1,1.725,1.725,0,0,1,.207-.6,1.815,1.815,0,0,1,1.026-.826,3.177,3.177,0,0,1,2.427.331,1.067,1.067,0,0,1,.406.354.607.607,0,0,1-.032.737c-.237.281-.583.2-.878.074a7.773,7.773,0,0,0-.819-.309,1.491,1.491,0,0,0-.608-.088.6.6,0,0,0-.49.328.589.589,0,0,0,.151.618,1.259,1.259,0,0,0,.594.3c.279.072.562.124.836.217a2.659,2.659,0,0,1,.905.521,1.766,1.766,0,0,1,.6,1.624,2.137,2.137,0,0,1-2.181,1.655,3.138,3.138,0,0,1-2.3-.984A.625.625,0,0,1,14.6,6.922ZM9.518,2.9a.413.413,0,0,1,.013-.061.594.594,0,0,1,.036-.179.608.608,0,0,1,.115-.173A.173.173,0,0,1,9.7,2.463h0a.611.611,0,0,1,.2-.134.618.618,0,0,1,.241-.049h1.465a2.11,2.11,0,1,1,0,4.219l-.84,0V8.165a.625.625,0,0,1-1.25,0Zm-4.709.024A.625.625,0,0,1,5.434,2.3h2.2a.625.625,0,0,1,0,1.25H6.059V4.91H7.468a.625.625,0,0,1,0,1.25H6.059V7.516H7.63a.625.625,0,0,1,0,1.25h-2.2a.625.625,0,0,1-.625-.625ZM21,15H17a2,2,0,0,0-2,2v4H4.5A1.5,1.5,0,0,1,3,19.5V11H21Z"/></svg>