<?xml version="1.0" encoding="utf-8"?>
<!-- Generator: Adobe Illustrator 25.2.1, SVG Export Plug-In . SVG Version: 6.00 Build 0)  -->
<svg version="1.1" id="Bold" xmlns="http://www.w3.org/2000/svg" xmlns:xlink="http://www.w3.org/1999/xlink" x="0px" y="0px"
	 viewBox="0 0 24 24" style="enable-background:new 0 0 24 24;" xml:space="preserve">
<style type="text/css">
	.st0{fill:#FFFFFF;}
</style>
<path class="st0" d="M18.5,2h-13C2.5,2,0,4.5,0,7.5v6c0,3,2.5,5.5,5.5,5.5h5v2H8c-0.8,0-1.5,0.7-1.5,1.5S7.2,24,8,24h8
	c0.8,0,1.5-0.7,1.5-1.5S16.8,21,16,21h-2.5v-2h5c3,0,5.5-2.5,5.5-5.5v-6C24,4.5,21.5,2,18.5,2z M21,13.5c0,1.4-1.1,2.5-2.5,2.5h-13
	C4.1,16,3,14.9,3,13.5v-6C3,6.1,4.1,5,5.5,5h13C19.9,5,21,6.1,21,7.5V13.5z"/>
</svg>
