<?xml version="1.0" encoding="utf-8"?>
<!-- Generator: Adobe Illustrator 25.2.1, SVG Export Plug-In . SVG Version: 6.00 Build 0)  -->
<svg version="1.1" id="Bold" xmlns="http://www.w3.org/2000/svg" xmlns:xlink="http://www.w3.org/1999/xlink" x="0px" y="0px"
	 viewBox="0 0 24 24" style="enable-background:new 0 0 24 24;" xml:space="preserve">
<style type="text/css">
	.st0{fill:#FFFFFF;}
</style>
<path class="st0" d="M7.5,14c-4.3,0.4-7.5,4-7.5,8.3v0.2C0,23.3,0.7,24,1.5,24l0,0C2.3,24,3,23.3,3,22.5v-0.3c0-2.6,1.9-4.9,4.5-5.2
	c2.8-0.3,5.2,1.7,5.5,4.5c0,0.2,0,0.3,0,0.5v0.5c0,0.8,0.7,1.5,1.5,1.5l0,0c0.8,0,1.5-0.7,1.5-1.5V22c0-4.4-3.6-8-8-8
	C7.8,14,7.6,14,7.5,14z"/>
<path class="st0" d="M8,12c3.3,0,6-2.7,6-6s-2.7-6-6-6S2,2.7,2,6C2,9.3,4.7,12,8,12z M8,3c1.7,0,3,1.3,3,3S9.7,9,8,9S5,7.7,5,6
	S6.3,3,8,3z"/>
<path class="st0" d="M22.5,10H21V8.5C21,7.7,20.3,7,19.5,7S18,7.7,18,8.5V10h-1.5c-0.8,0-1.5,0.7-1.5,1.5s0.7,1.5,1.5,1.5H18v1.5
	c0,0.8,0.7,1.5,1.5,1.5s1.5-0.7,1.5-1.5l0,0V13h1.5c0.8,0,1.5-0.7,1.5-1.5S23.3,10,22.5,10z"/>
</svg>
