<?xml version="1.0" encoding="utf-8"?>
<!-- Generator: Adobe Illustrator 25.2.1, SVG Export Plug-In . SVG Version: 6.00 Build 0)  -->
<svg version="1.1" id="Layer_1" xmlns="http://www.w3.org/2000/svg" xmlns:xlink="http://www.w3.org/1999/xlink" x="0px" y="0px"
	 viewBox="0 0 24 24" style="enable-background:new 0 0 24 24;" xml:space="preserve">
<style type="text/css">
	.st0{fill:#F7FF8D;}
</style>
<path class="st0" d="M4.9,2.9l1.6-0.4l0.4-1.6C7,0.2,7.7-0.1,8.3,0C8.7,0.2,9,0.5,9.1,0.9l0.4,1.5l1.6,0.4c0.6,0.2,1,0.8,0.8,1.5
	c-0.1,0.4-0.4,0.7-0.8,0.8L9.6,5.6L9.1,7.1C9,7.8,8.3,8.1,7.7,8C7.3,7.8,7,7.5,6.9,7.1L6.4,5.6L4.9,5.1C4.2,5,3.9,4.3,4.1,3.7
	C4.2,3.3,4.5,3,4.9,2.9z M23.1,14.9l-1.5-0.4l-0.4-1.6c-0.2-0.6-0.8-1-1.5-0.8c-0.4,0.1-0.7,0.4-0.8,0.8l-0.4,1.6L17,14.9
	c-0.6,0.2-1,0.8-0.8,1.5c0.1,0.4,0.4,0.7,0.8,0.8l1.5,0.4l0.4,1.5c0.2,0.6,0.8,1,1.5,0.8c0.4-0.1,0.7-0.4,0.8-0.8l0.4-1.5l1.5-0.4
	c0.6-0.2,1-0.9,0.8-1.5C23.8,15.3,23.5,15,23.1,14.9z M17.8,4.5l1.4,0.4l0.4,1.4c0.2,0.6,0.7,0.9,1.3,0.7c0.3-0.1,0.6-0.4,0.7-0.7
	L22,4.9l1.4-0.4c0.6-0.2,0.9-0.7,0.7-1.3c-0.1-0.3-0.4-0.6-0.7-0.7L22,2.1l-0.4-1.4c-0.2-0.6-0.7-0.9-1.3-0.7
	c-0.3,0.1-0.6,0.4-0.7,0.7l-0.4,1.4l-1.4,0.4c-0.6,0.2-0.9,0.7-0.7,1.3C17.1,4.1,17.4,4.4,17.8,4.5z M17.2,12.6L6.7,22.9
	c-1.5,1.5-4,1.5-5.5,0s-1.5-4,0-5.6L11.7,7c1.5-1.5,4-1.5,5.5,0.1c0.7,0.7,1.1,1.7,1.1,2.8C18.3,10.9,17.9,11.9,17.2,12.6L17.2,12.6
	z M11,14.5l-1.3-1.3l-6.4,6.3c-0.4,0.4-0.3,0.9,0,1.3c0.4,0.4,0.9,0.4,1.3,0L11,14.5z M15.3,9.8c0-0.5-0.4-0.9-0.9-0.9
	c-0.2,0-0.5,0.1-0.7,0.3l-2,1.9l1.3,1.3l1.9-1.9C15.2,10.3,15.3,10.1,15.3,9.8L15.3,9.8z"/>
</svg>
