<?xml version="1.0" encoding="utf-8"?>
<!-- Generator: Adobe Illustrator 25.2.1, SVG Export Plug-In . SVG Version: 6.00 Build 0)  -->
<svg version="1.1" id="Layer_1" xmlns="http://www.w3.org/2000/svg" xmlns:xlink="http://www.w3.org/1999/xlink" x="0px" y="0px"
	 viewBox="0 0 24 24" style="enable-background:new 0 0 24 24;" xml:space="preserve">
<style type="text/css">
	.st0{fill:#FFFFFF;}
</style>
<path class="st0" d="M7.5,13C5,13,3,11,3,8.5S5,4,7.5,4S12,6,12,8.5C12,11,10,13,7.5,13z M7.5,7C6.7,7,6,7.7,6,8.5S6.7,10,7.5,10
	S9,9.3,9,8.5S8.3,7,7.5,7z M15,22.5c0-4.1-3.4-7.5-7.5-7.5S0,18.4,0,22.5C0,23.3,0.7,24,1.5,24S3,23.3,3,22.5C3,20,5,18,7.5,18
	s4.5,2,4.5,4.5c0,0.8,0.7,1.5,1.5,1.5S15,23.3,15,22.5z M24,18c0-3.9-3.1-7-7-7c-1.6,0-3.2,0.6-4.5,1.6c-0.6,0.5-0.7,1.5-0.2,2.1
	c0.5,0.6,1.5,0.7,2.1,0.2l0,0c0.7-0.6,1.6-0.9,2.5-0.9c2.2,0,4,1.8,4,4c0,0.8,0.7,1.5,1.5,1.5S24,18.8,24,18z M17.5,9
	C15,9,13,7,13,4.5S15,0,17.5,0S22,2,22,4.5C22,7,20,9,17.5,9z M17.5,3C16.7,3,16,3.7,16,4.5S16.7,6,17.5,6S19,5.3,19,4.5
	S18.3,3,17.5,3z"/>
</svg>
