<?xml version="1.0" encoding="utf-8"?>
<!-- Generator: Adobe Illustrator 25.2.1, SVG Export Plug-In . SVG Version: 6.00 Build 0)  -->
<svg version="1.1" id="Bold" xmlns="http://www.w3.org/2000/svg" xmlns:xlink="http://www.w3.org/1999/xlink" x="0px" y="0px"
	 viewBox="0 0 24 24" style="enable-background:new 0 0 24 24;" xml:space="preserve">
<style type="text/css">
	.st0{fill:#FFFFFF;}
</style>
<path class="st0" d="M13.1,19.5c-0.8,0-1.5-0.7-1.5-1.5c0-0.4,0.2-0.8,0.4-1.1l4.6-4.6c0.2-0.2,0.2-0.5,0-0.7c0,0,0,0,0,0L12,7.1
	c-0.6-0.6-0.6-1.5,0-2.1s1.5-0.6,2.1,0l4.6,4.6c1.4,1.4,1.4,3.6,0,4.9l-4.6,4.6C13.9,19.3,13.5,19.5,13.1,19.5z"/>
<path class="st0" d="M6.1,19.5c-0.8,0-1.5-0.7-1.5-1.5c0-0.4,0.2-0.8,0.4-1.1L10,12L5,7.1C4.5,6.5,4.5,5.5,5,4.9s1.5-0.6,2.1,0l0,0
	l6,6c0.6,0.6,0.6,1.5,0,2.1c0,0,0,0,0,0l-6,6C6.9,19.3,6.5,19.5,6.1,19.5z"/>
</svg>
