<?xml version="1.0" encoding="utf-8"?>
<!-- Generator: Adobe Illustrator 25.2.1, SVG Export Plug-In . SVG Version: 6.00 Build 0)  -->
<svg version="1.1" id="Bold" xmlns="http://www.w3.org/2000/svg" xmlns:xlink="http://www.w3.org/1999/xlink" x="0px" y="0px"
	 viewBox="0 0 24 24" style="enable-background:new 0 0 24 24;" xml:space="preserve">
<style type="text/css">
	.st0{fill:#FFFFFF;}
</style>
<path class="st0" d="M10.4,3H5.3C2.4,3,0,5.4,0,8.3l0,0v7.4C0,18.6,2.4,21,5.3,21l0,0h8.4c2.4,0,4.5-1.6,5.1-3.9L20,18
	c0.4,0.3,1,0.5,1.5,0.5s1-0.2,1.5-0.5c0.7-0.5,1.1-1.3,1-2.1V8c0-1-0.6-2-1.6-2.3c-0.9-0.3-1.8-0.2-2.5,0.4l-1.1,0.8
	C18.3,5,16.7,3.4,14.7,3H10.4z M16,15.7c0,1.3-1,2.3-2.3,2.3H5.3C4,18,3,17,3,15.7V8.3C3,7,4,6,5.3,6h8.4C15,6,16,7,16,8.3V15.7z"/>
<path class="st0" d="M20.2,22.3L1.7,3.8C0.9,3,0.8,2,1.4,1.4S3,0.9,3.8,1.7l18.6,18.6c0.7,0.7,0.9,1.8,0.3,2.4S21,23.1,20.2,22.3z"
	/>
</svg>
