<?xml version="1.0" encoding="utf-8"?>
<!-- Generator: Adobe Illustrator 25.2.1, SVG Export Plug-In . SVG Version: 6.00 Build 0)  -->
<svg version="1.1" id="Bold" xmlns="http://www.w3.org/2000/svg" xmlns:xlink="http://www.w3.org/1999/xlink" x="0px" y="0px"
	 viewBox="0 0 24 24" style="enable-background:new 0 0 24 24;" xml:space="preserve">
<style type="text/css">
	.st0{fill:#FFFFFF;}
</style>
<path class="st0" d="M12,0C5.4,0,0,5.4,0,12s5.4,12,12,12s12-5.4,12-12C24,5.4,18.6,0,12,0z M12,21c-5,0-9-4-9-9s4-9,9-9s9,4,9,9
	C21,17,17,21,12,21z"/>
<path class="st0" d="M11.5,9.5h-0.3c-0.8,0-1.5,0.6-1.6,1.4c-0.1,0.8,0.5,1.5,1.4,1.6v4.6c0,0.8,0.7,1.5,1.5,1.5S14,18,14,17.2V12
	C14,10.6,12.9,9.5,11.5,9.5z"/>
<path class="st0" d="M11.8,8.5c0.9,0,1.7-0.8,1.7-1.7S12.8,5,11.8,5c-0.9,0-1.7,0.8-1.7,1.7c0,0,0,0,0,0C10.1,7.7,10.9,8.5,11.8,8.5
	C11.8,8.5,11.8,8.5,11.8,8.5z"/>
</svg>
