<?xml version="1.0" encoding="utf-8"?>
<!-- Generator: Adobe Illustrator 25.2.1, SVG Export Plug-In . SVG Version: 6.00 Build 0)  -->
<svg version="1.1" id="Layer_1" xmlns="http://www.w3.org/2000/svg" xmlns:xlink="http://www.w3.org/1999/xlink" x="0px" y="0px"
	 viewBox="0 0 24 24" style="enable-background:new 0 0 24 24;" xml:space="preserve">
<style type="text/css">
	.st0{fill:#FFFFFF;}
</style>
<path class="st0" d="M20.2,2l-5.3-1.8C12-0.6,8.9,1,8,3.9L8,4H5.5C2.5,4,0,6.5,0,9.5v9c0,3,2.5,5.5,5.5,5.5h5c1.7,0,3.2-0.7,4.3-2
	c2.7,0.4,5.2-1.3,5.9-3.9l3.1-9.3C24.6,5.9,23,2.9,20.2,2z M13,18.5c0,1.4-1.1,2.5-2.5,2.5h-5C4.1,21,3,19.9,3,18.5v-9
	C3,8.1,4.1,7,5.5,7h5C11.9,7,13,8.1,13,9.5V18.5z M20.9,7.9l-3.1,9.3c-0.3,0.9-1,1.5-1.9,1.7c0-0.1,0-0.3,0-0.4v-9
	c0-2.7-2-5.1-4.7-5.4c0.6-0.9,1.7-1.3,2.7-1l5.3,1.8C20.5,5.3,21.3,6.6,20.9,7.9z"/>
</svg>
