<?xml version="1.0" encoding="utf-8"?>
<!-- Generator: Adobe Illustrator 25.2.1, SVG Export Plug-In . SVG Version: 6.00 Build 0)  -->
<svg version="1.1" id="Layer_1" xmlns="http://www.w3.org/2000/svg" xmlns:xlink="http://www.w3.org/1999/xlink" x="0px" y="0px"
	 viewBox="0 0 24 24" style="enable-background:new 0 0 24 24;" xml:space="preserve">
<style type="text/css">
	.st0{fill:#FFFFFF;}
</style>
<path class="st0" d="M10.3,5.5l0-1.7h0.8c0.5,0,0.9,0.4,0.9,0.9c0,0.5-0.4,0.9-0.9,0.9L10.3,5.5z M24,4.5v11.3
	c0,1.5-0.6,2.9-1.6,3.9l-2.7,2.7c-1,1-2.4,1.6-3.9,1.6H4.5C2,24,0,22,0,19.5v-15C0,2,2,0,4.5,0h15C22,0,24,2,24,4.5z M14,6.6
	c0,1.1,0.9,2,2,2c0,0,0,0,0,0l0,0c1.1,0,2-0.9,2-2V6.2c0-0.4-0.3-0.8-0.8-0.8h-0.8C16.2,5.5,16,5.7,16,6s0.2,0.5,0.5,0.5h0.2v0.1
	c0,0.4-0.3,0.7-0.8,0.7c-0.4,0-0.7-0.3-0.7-0.7c0,0,0,0,0,0V4.5c0-0.4,0.3-0.7,0.7-0.8c0,0,0,0,0,0c0.3,0,0.5,0.2,0.7,0.4
	c0.2,0.3,0.5,0.4,0.8,0.3c0.3-0.2,0.4-0.5,0.3-0.8c-0.3-0.7-1-1.1-1.8-1.1l0,0c-1.1,0-2,0.9-2,2c0,0,0,0,0,0V6.6z M9,7.9
	c0,0.3,0.3,0.6,0.6,0.6s0.6-0.3,0.6-0.6l0,0V6.7h0.8c1.2,0,2.1-0.9,2.2-2.1c0-1.2-0.9-2.1-2.1-2.2c0,0-0.1,0-0.1,0H10
	c-0.6,0-1,0.4-1,1V7.9z M4.1,7.4c0.3,0.7,1.1,1.2,1.8,1.2l0,0C7.1,8.6,8,7.7,8,6.5c0,0,0,0,0,0V3.2c0-0.4-0.3-0.7-0.7-0.7
	S6.7,2.8,6.7,3.2v3.3c0,0.4-0.3,0.8-0.8,0.8c0,0,0,0,0,0c-0.3,0-0.6-0.2-0.7-0.5C5.1,6.5,4.7,6.4,4.4,6.5S3.9,7.1,4.1,7.4z M4.5,21
	H15v-4c0-1.1,0.9-2,2-2h4v-4H3v8.5C3,20.3,3.7,21,4.5,21z"/>
</svg>
