<?xml version="1.0" encoding="utf-8"?>
<!-- Generator: Adobe Illustrator 25.2.1, SVG Export Plug-In . SVG Version: 6.00 Build 0)  -->
<svg version="1.1" id="Bold" xmlns="http://www.w3.org/2000/svg" xmlns:xlink="http://www.w3.org/1999/xlink" x="0px" y="0px"
	 viewBox="0 0 24 24" style="enable-background:new 0 0 24 24;" xml:space="preserve">
<style type="text/css">
	.st0{fill:#FFFFFF;}
</style>
<path class="st0" d="M6.9,23.4c-0.8,0-1.5-0.2-2.1-0.7c-1.3-0.9-1.8-2.6-1.3-4.1l1.2-3.6l-3.1-2.3c-1.6-1.2-2-3.4-0.8-5.1
	c0.7-0.9,1.8-1.5,2.9-1.5h3.8l1.1-3.6c0.6-1.9,2.7-3,4.6-2.3c1.1,0.4,2,1.2,2.3,2.3l0,0l1.1,3.6h3.8c2,0,3.6,1.6,3.6,3.6
	c0,1.2-0.6,2.2-1.5,2.9l-3.1,2.3l1.2,3.6c0.6,1.9-0.4,3.9-2.3,4.6c-1.1,0.4-2.3,0.2-3.3-0.5l-3-2.2l-3,2.2
	C8.4,23.2,7.6,23.4,6.9,23.4z M3.6,9.3C3.3,9.3,3,9.5,3,9.9c0,0.2,0.1,0.4,0.3,0.5l4,2.9C7.7,13.7,8,14.3,7.8,15l-1.5,4.6
	c-0.1,0.3,0.1,0.7,0.4,0.8c0.2,0.1,0.4,0,0.6-0.1l3.9-2.9c0.5-0.4,1.2-0.4,1.8,0l3.9,2.9c0.3,0.2,0.7,0.1,0.9-0.1
	c0.1-0.2,0.2-0.4,0.1-0.6L16.2,15c-0.2-0.6,0-1.3,0.5-1.7l4-2.9c0.3-0.2,0.3-0.6,0.1-0.9c-0.1-0.2-0.3-0.3-0.5-0.3h-4.9
	c-0.7,0-1.2-0.4-1.4-1l-1.5-4.6c-0.1-0.3-0.5-0.5-0.8-0.4c-0.2,0.1-0.3,0.2-0.4,0.4L9.9,8.2c-0.2,0.6-0.8,1-1.4,1H3.6z"/>
</svg>
