<?xml version="1.0" encoding="utf-8"?>
<!-- Generator: Adobe Illustrator 25.2.1, SVG Export Plug-In . SVG Version: 6.00 Build 0)  -->
<svg version="1.1" id="Layer_1" xmlns="http://www.w3.org/2000/svg" xmlns:xlink="http://www.w3.org/1999/xlink" x="0px" y="0px"
	 viewBox="0 0 24 24" style="enable-background:new 0 0 24 24;" xml:space="preserve">
<style type="text/css">
	.st0{fill:#FFFFFF;}
</style>
<path class="st0" d="M13.5,19h-8c-3,0-5.5-2.5-5.5-5.5v-8C0,2.5,2.5,0,5.5,0h8c3,0,5.5,2.5,5.5,5.5v8C19,16.5,16.5,19,13.5,19z
	 M5.5,3C4.1,3,3,4.1,3,5.5v8C3,14.9,4.1,16,5.5,16h8c1.4,0,2.5-1.1,2.5-2.5v-8C16,4.1,14.9,3,13.5,3H5.5z M24,18.5V7
	c0-0.8-0.7-1.5-1.5-1.5S21,6.2,21,7v11.5c0,1.4-1.1,2.5-2.5,2.5H7c-0.8,0-1.5,0.7-1.5,1.5S6.2,24,7,24h11.5C21.5,24,24,21.5,24,18.5
	z"/>
</svg>
