<svg id="Layer_1" data-name="Layer 1" xmlns="http://www.w3.org/2000/svg" viewBox="0 0 24 24"><path d="M18.5,24a1.5,1.5,0,0,1,0-3A2.5,2.5,0,0,0,21,18.5a1.5,1.5,0,0,1,3,0A5.506,5.506,0,0,1,18.5,24ZM24,5.5A5.506,5.506,0,0,0,18.5,0a1.5,1.5,0,0,0,0,3A2.5,2.5,0,0,1,21,5.5a1.5,1.5,0,0,0,3,0Zm0,8v-3a1.5,1.5,0,0,0-3,0v3a1.5,1.5,0,0,0,3,0Zm-17,9A1.5,1.5,0,0,0,5.5,21,2.5,2.5,0,0,1,3,18.5a1.5,1.5,0,0,0-3,0A5.506,5.506,0,0,0,5.5,24,1.5,1.5,0,0,0,7,22.5ZM3,5.5A2.5,2.5,0,0,1,5.5,3a1.5,1.5,0,0,0,0-3A5.506,5.506,0,0,0,0,5.5a1.5,1.5,0,0,0,3,0Zm0,8v-3a1.5,1.5,0,0,0-3,0v3a1.5,1.5,0,0,0,3,0Zm12-12A1.5,1.5,0,0,0,13.5,0h-3a1.5,1.5,0,0,0,0,3h3A1.5,1.5,0,0,0,15,1.5Zm0,21A1.5,1.5,0,0,0,13.5,21h-3a1.5,1.5,0,0,0,0,3h3A1.5,1.5,0,0,0,15,22.5Z"/></svg>