<?xml version="1.0" encoding="utf-8"?>
<!-- Generator: Adobe Illustrator 25.2.1, SVG Export Plug-In . SVG Version: 6.00 Build 0)  -->
<svg version="1.1" id="Bold" xmlns="http://www.w3.org/2000/svg" xmlns:xlink="http://www.w3.org/1999/xlink" x="0px" y="0px"
	 viewBox="0 0 24 24" style="enable-background:new 0 0 24 24;" xml:space="preserve">
<style type="text/css">
	.st0{fill:#F7FF8D;}
</style>
<path class="st0" d="M11.5,14C7.2,14.4,4,18,4,22.3v0.2C4,23.3,4.7,24,5.5,24l0,0C6.3,24,7,23.3,7,22.5v-0.3c0-2.6,1.9-4.9,4.5-5.2
	c2.8-0.3,5.2,1.7,5.5,4.5c0,0.2,0,0.3,0,0.5v0.5c0,0.8,0.7,1.5,1.5,1.5l0,0c0.8,0,1.5-0.7,1.5-1.5V22c0-4.4-3.6-8-8-8
	C11.8,14,11.6,14,11.5,14z"/>
<path class="st0" d="M12,12c3.3,0,6-2.7,6-6s-2.7-6-6-6S6,2.7,6,6S8.7,12,12,12z M12,3c1.7,0,3,1.3,3,3s-1.3,3-3,3S9,7.7,9,6
	S10.3,3,12,3z"/>
</svg>
