<svg id="Bold" xmlns="http://www.w3.org/2000/svg" viewBox="0 0 24 24"><title>123 thumbs up</title><path d="M22.838,8.037A5.476,5.476,0,0,0,18.565,6H16.527l.09-.528A3.951,3.951,0,0,0,12.67.857a3.989,3.989,0,0,0-3.576,2.18L7.582,6H5.5A5.506,5.506,0,0,0,0,11.5v5A5.506,5.506,0,0,0,5.5,22H17.508a5.525,5.525,0,0,0,5.381-4.361l1.057-5A5.477,5.477,0,0,0,22.838,8.037ZM3,16.5v-5A2.5,2.5,0,0,1,5.5,9H7V19H5.5A2.5,2.5,0,0,1,3,16.5Zm18.011-4.482-1.058,5A2.51,2.51,0,0,1,17.508,19H10V7.861L11.766,4.4a1.029,1.029,0,0,1,.956-.543.952.952,0,0,1,.938,1.111L12.973,9h5.592a2.5,2.5,0,0,1,2.446,3.018Z"/></svg>