<?xml version="1.0" encoding="utf-8"?>
<!-- Generator: Adobe Illustrator 25.2.1, SVG Export Plug-In . SVG Version: 6.00 Build 0)  -->
<svg version="1.1" id="Bold" xmlns="http://www.w3.org/2000/svg" xmlns:xlink="http://www.w3.org/1999/xlink" x="0px" y="0px"
	 viewBox="0 0 24 24" style="enable-background:new 0 0 24 24;" xml:space="preserve">
<style type="text/css">
	.st0{fill:#8B8B8B;}
</style>
<path class="st0" d="M1.5,23.4c-0.8,0-1.5-0.7-1.5-1.5v-6c0-5.2,4.3-9.5,9.5-9.5h3.7V4.8c0-1.2,1-2.2,2.2-2.2c0.6,0,1.2,0.3,1.6,0.7
	l6.2,6.7c1,1.1,1,2.9,0,4L17,20.6c-0.8,0.9-2.2,0.9-3.1,0.1c-0.5-0.4-0.7-1-0.7-1.6v-1.7H7.5c-2.5,0-4.5,2-4.5,4.5
	C3,22.8,2.3,23.4,1.5,23.4z M7.5,14.4h7.2c0.8,0,1.5,0.7,1.5,1.5v1.2l4.9-5.2l-4.9-5.2v1.2c0,0.8-0.7,1.5-1.5,1.5H9.5
	C5.9,9.5,3,12.4,3,15.9l0,0C4.3,15,5.9,14.4,7.5,14.4z M14.8,5.3L14.8,5.3L14.8,5.3z"/>
</svg>
