<?xml version="1.0" encoding="utf-8"?>
<!-- Generator: Adobe Illustrator 25.2.1, SVG Export Plug-In . SVG Version: 6.00 Build 0)  -->
<svg version="1.1" id="Bold" xmlns="http://www.w3.org/2000/svg" xmlns:xlink="http://www.w3.org/1999/xlink" x="0px" y="0px"
	 viewBox="0 0 24 24" style="enable-background:new 0 0 24 24;" xml:space="preserve">
<style type="text/css">
	.st0{fill:#FD5050;}
</style>
<path class="st0" d="M18.5,0h-13C2.5,0,0,2.5,0,5.5v13c0,3,2.5,5.5,5.5,5.5h13c3,0,5.5-2.5,5.5-5.5v-13C24,2.5,21.5,0,18.5,0z
	 M21,18.5c0,1.4-1.1,2.5-2.5,2.5h-13C4.1,21,3,19.9,3,18.5v-13C3,4.1,4.1,3,5.5,3h13C19.9,3,21,4.1,21,5.5V18.5z"/>
<path class="st0" d="M14.2,8H9.8C8.8,8,8,8.8,8,9.8v4.3c0,1,0.8,1.8,1.8,1.8h4.3c1,0,1.8-0.8,1.8-1.8V9.8C16,8.8,15.2,8,14.2,8z"/>
</svg>
