<?xml version="1.0" encoding="utf-8"?>
<!-- Generator: Adobe Illustrator 25.2.1, SVG Export Plug-In . SVG Version: 6.00 Build 0)  -->
<svg version="1.1" id="Bold" xmlns="http://www.w3.org/2000/svg" xmlns:xlink="http://www.w3.org/1999/xlink" x="0px" y="0px"
	 viewBox="0 0 24 24" style="enable-background:new 0 0 24 24;" xml:space="preserve">
<style type="text/css">
	.st0{fill:#FFFFFF;}
</style>
<path class="st0" d="M12,19c3.9,0,7-3.1,7-7V7c0-3.9-3.1-7-7-7S5,3.1,5,7v5C5,15.9,8.1,19,12,19z M12,3c2.2,0,4,1.8,4,4v1h-1.5
	C13.7,8,13,8.7,13,9.5s0.7,1.5,1.5,1.5H16v1c0,2.2-1.8,4-4,4s-4-1.8-4-4v-1h1.5c0.8,0,1.5-0.7,1.5-1.5S10.3,8,9.5,8H8V7
	C8,4.8,9.8,3,12,3z"/>
<path class="st0" d="M22.5,11.5c-0.8,0-1.5,0.7-1.5,1.5v0.4c0,4.2-3.4,7.6-7.6,7.6h-2.8C6.4,21,3,17.6,3,13.4V13
	c0-0.8-0.7-1.5-1.5-1.5S0,12.2,0,13v0.4C0,19.2,4.8,24,10.6,24h2.8C19.2,24,24,19.2,24,13.4V13C24,12.2,23.3,11.5,22.5,11.5z"/>
<path class="st0" d="M20.2,22.3L1.7,3.8C0.9,3,0.8,2,1.4,1.4S3,0.9,3.8,1.7l18.6,18.6c0.7,0.7,0.9,1.8,0.3,2.4S21,23.1,20.2,22.3z"
	/>
</svg>
