<svg id="Layer_1" data-name="Layer 1" xmlns="http://www.w3.org/2000/svg" viewBox="0 0 24 24"><path d="M13.5,2.115V1.5a1.5,1.5,0,0,0-3,0v.615A10.968,10.968,0,0,0,3.286,19.687,3.526,3.526,0,0,0,2,22.5a1.5,1.5,0,0,0,3,0,.641.641,0,0,1,.455-.68,10.917,10.917,0,0,0,13.087,0A.641.641,0,0,1,19,22.5a1.5,1.5,0,0,0,3,0,3.526,3.526,0,0,0-1.286-2.813A10.968,10.968,0,0,0,13.5,2.115ZM4,13a8,8,0,1,1,8,8A8.009,8.009,0,0,1,4,13Z"/><path d="M19.5,0a1.5,1.5,0,0,0,0,3,1.361,1.361,0,0,1,1.459,1.5,1.5,1.5,0,0,0,3,0A4.333,4.333,0,0,0,19.5,0Z"/><path d="M3.041,4.5A1.361,1.361,0,0,1,4.5,3a1.5,1.5,0,0,0,0-3A4.333,4.333,0,0,0,.041,4.5a1.5,1.5,0,0,0,3,0Z"/><path d="M13.53,12.379V8.5a1.5,1.5,0,0,0-1.5-1.5h0a1.5,1.5,0,0,0-1.5,1.5v4.293a2,2,0,0,0,.586,1.414L12.909,16a1.5,1.5,0,0,0,2.121-2.121Z"/></svg>