<?xml version="1.0" encoding="utf-8"?>
<!-- Generator: Adobe Illustrator 25.2.1, SVG Export Plug-In . SVG Version: 6.00 Build 0)  -->
<svg version="1.1" id="Bold" xmlns="http://www.w3.org/2000/svg" xmlns:xlink="http://www.w3.org/1999/xlink" x="0px" y="0px"
	 viewBox="0 0 24 24" style="enable-background:new 0 0 24 24;" xml:space="preserve">
<style type="text/css">
	.st0{fill:#FFFFFF;}
</style>
<polygon class="st0" points="6.1,6.1 7.5,6.1 6.8,4.3 "/>
<path class="st0" d="M19.5,0h-15C2,0,0,2,0,4.5v15C0,22,2,24,4.5,24h12c1.2,0,2.3-0.5,3.2-1.3l3-3c0.8-0.8,1.3-2,1.3-3.2v-12
	C24,2,22,0,19.5,0z M9.5,7.8c0.1,0.3,0,0.7-0.4,0.8s-0.7,0-0.8-0.4L8,7.3H5.7L5.3,8.2C5.2,8.5,4.8,8.7,4.5,8.6
	C4.2,8.4,4,8.1,4.2,7.8l2-5.2c0.1-0.3,0.4-0.5,0.7-0.5l0,0c0.3,0,0.6,0.2,0.7,0.5L9.5,7.8z M10.6,2.7c0-0.3,0.3-0.6,0.6-0.6
	s0.6,0.3,0.6,0.6V8c0,0.3-0.3,0.6-0.6,0.6S10.6,8.3,10.6,8V2.7z M17,15c-1.1,0-2,0.9-2,2v4H4.5C3.7,21,3,20.3,3,19.5V11h18v4H17z"/>
</svg>
