<?xml version="1.0" encoding="utf-8"?>
<!-- Generator: Adobe Illustrator 25.2.1, SVG Export Plug-In . SVG Version: 6.00 Build 0)  -->
<svg version="1.1" id="Bold" xmlns="http://www.w3.org/2000/svg" xmlns:xlink="http://www.w3.org/1999/xlink" x="0px" y="0px"
	 viewBox="0 0 24 24" style="enable-background:new 0 0 24 24;" xml:space="preserve">
<style type="text/css">
	.st0{fill:#FFFFFF;}
</style>
<path class="st0" d="M12,0C5.4,0,0,5.4,0,12s5.4,12,12,12s12-5.4,12-12C24,5.4,18.6,0,12,0z M12.5,21v-1.3c0-2.3-1.9-4.2-4.2-4.2h0
	c-0.8,0-1.6-0.3-2.2-0.9L3,11.5c0.3-5,4.5-8.8,9.4-8.5c1.6,0.1,3.2,0.6,4.6,1.5c-0.3,0.2-0.6,0.3-0.9,0.3h-1.4
	c-0.9,0-1.6,0.7-1.6,1.6c0,0,0,0,0,0v1c0,0.9-0.7,1.6-1.6,1.6h0l0,0C10.7,9,10,9.7,10,10.5c0,0,0,0,0,0v1c0,0.9,0.7,1.6,1.6,1.6h0
	h4.2c0.9,0,1.6,0.7,1.6,1.6l0,0v1.5c0,0.4,0.2,0.8,0.5,1.1l0.8,0.8C17,19.8,14.8,20.8,12.5,21z"/>
</svg>
