<?xml version="1.0" encoding="utf-8"?>
<!-- Generator: Adobe Illustrator 25.2.1, SVG Export Plug-In . SVG Version: 6.00 Build 0)  -->
<svg version="1.1" id="Bold" xmlns="http://www.w3.org/2000/svg" xmlns:xlink="http://www.w3.org/1999/xlink" x="0px" y="0px"
	 viewBox="0 0 24 24" style="enable-background:new 0 0 24 24;" xml:space="preserve">
<style type="text/css">
	.st0{fill:#F7FF8D;}
</style>
<path class="st0" d="M11.1,0.5L3.7,3.9C1.3,5,0.2,8,1.3,10.5l5,10.6c1.1,2.5,4.1,3.5,6.6,2.4l7.4-3.4c2.5-1.1,3.5-4.1,2.4-6.6
	l-5-10.6C16.6,0.4,13.6-0.7,11.1,0.5z M4.9,6.3l7.4-3.4c1.1-0.5,2.5-0.1,3,1.1l0.6,1.2L4.4,10.6L3.8,9.4C3.3,8.2,3.7,6.9,4.9,6.3z
	 M19.1,17.7l-7.4,3.4c-1.1,0.5-2.5,0.1-3-1.1l-3.2-7L17,7.7l3.2,7C20.7,15.8,20.3,17.1,19.1,17.7z"/>
<path class="st0" d="M11.5,14h1c0.8,0,1.5,0.7,1.5,1.5l0,0c0,0.8-0.7,1.5-1.5,1.5h-1c-0.8,0-1.5-0.7-1.5-1.5l0,0
	C10,14.7,10.7,14,11.5,14z"/>
</svg>
