<?xml version="1.0" encoding="utf-8"?>
<!-- Generator: Adobe Illustrator 25.2.1, SVG Export Plug-In . SVG Version: 6.00 Build 0)  -->
<svg version="1.1" id="Layer_1" xmlns="http://www.w3.org/2000/svg" xmlns:xlink="http://www.w3.org/1999/xlink" x="0px" y="0px"
	 viewBox="0 0 24 24" style="enable-background:new 0 0 24 24;" xml:space="preserve">
<style type="text/css">
	.st0{fill:#FFFFFF;}
</style>
<path class="st0" d="M18.5,24h-13c-3,0-5.5-2.5-5.5-5.5v-13C0,2.5,2.5,0,5.5,0h13c3,0,5.5,2.5,5.5,5.5v13C24,21.5,21.5,24,18.5,24z
	 M5.5,3C4.1,3,3,4.1,3,5.5v13C3,19.9,4.1,21,5.5,21h13c1.4,0,2.5-1.1,2.5-2.5v-13C21,4.1,19.9,3,18.5,3H5.5z M8,9.3v5.3
	C8,15.4,8.6,16,9.3,16c0.2,0,0.5-0.1,0.7-0.2l5.3-2.7c0.6-0.4,0.9-1.2,0.5-1.8c-0.1-0.2-0.3-0.4-0.5-0.5L10,8.2
	C9.4,7.8,8.5,8,8.2,8.7C8.1,8.9,8,9.1,8,9.3z"/>
</svg>
