<svg id="Bold" xmlns="http://www.w3.org/2000/svg" viewBox="0 0 24 24"><title>53 psd file</title><path d="M6.377,5.235a.886.886,0,0,0,.888-.86.886.886,0,0,0-.888-.859H5.538l.006,1.723Z"/><path d="M17.22,7.438c.971-.017,1.406-.975,1.406-1.917s-.377-1.927-1.437-1.927h-.82l.008,3.852C16.682,7.444,17.025,7.441,17.22,7.438Z"/><path d="M19.5,0H4.5A4.505,4.505,0,0,0,0,4.5v15A4.505,4.505,0,0,0,4.5,24H16.484a4.467,4.467,0,0,0,3.182-1.318l3.016-3.015A4.472,4.472,0,0,0,24,16.485V4.5A4.505,4.505,0,0,0,19.5,0ZM15.118,2.97a.623.623,0,0,1,.625-.626h1.446c1.606,0,2.687,1.277,2.687,3.177,0,1.808-1.108,3.14-2.634,3.167-.415.007-1.486.011-1.486.011h0a.625.625,0,0,1-.625-.622V8.044c0-.018-.01-.034-.01-.053ZM9.345,6.827a.6.6,0,0,1,.761-.051l.127.1a2.666,2.666,0,0,0,.847.5,1.549,1.549,0,0,0,.975-.035.727.727,0,0,0,.456-.409.564.564,0,0,0-.149-.579,1.331,1.331,0,0,0-.482-.276c-.415-.151-.824-.315-1.233-.483a1.933,1.933,0,0,1-.96-.735,1.615,1.615,0,0,1-.235-1.1,1.739,1.739,0,0,1,.207-.6,1.819,1.819,0,0,1,1.026-.826,3.186,3.186,0,0,1,2.427.331,1.089,1.089,0,0,1,.407.355.608.608,0,0,1-.033.737c-.237.281-.583.2-.878.074a7.773,7.773,0,0,0-.819-.309,1.491,1.491,0,0,0-.608-.088.6.6,0,0,0-.49.327.588.588,0,0,0,.151.618,1.25,1.25,0,0,0,.594.3c.279.073.562.125.836.218a2.657,2.657,0,0,1,.9.52,1.768,1.768,0,0,1,.6,1.625A2.137,2.137,0,0,1,11.6,8.7,3.135,3.135,0,0,1,9.3,7.71.625.625,0,0,1,9.345,6.827ZM4.287,2.891A.453.453,0,0,1,4.3,2.827a.618.618,0,0,1,.035-.177.639.639,0,0,1,.129-.194l0-.007h0a.645.645,0,0,1,.2-.135.632.632,0,0,1,.241-.048H6.377a2.11,2.11,0,1,1,0,4.219l-.84,0V8.152a.625.625,0,0,1-1.25,0ZM21,15H17a2,2,0,0,0-2,2v4H4.5A1.5,1.5,0,0,1,3,19.5V11H21Z"/></svg>