<?xml version="1.0" encoding="utf-8"?>
<!-- Generator: Adobe Illustrator 25.2.1, SVG Export Plug-In . SVG Version: 6.00 Build 0)  -->
<svg version="1.1" id="Bold" xmlns="http://www.w3.org/2000/svg" xmlns:xlink="http://www.w3.org/1999/xlink" x="0px" y="0px"
	 viewBox="0 0 24 24" style="enable-background:new 0 0 24 24;" xml:space="preserve">
<style type="text/css">
	.st0{fill:#FFFFFF;}
</style>
<path class="st0" d="M14.1,12L18,8.1c0.5-0.6,0.5-1.6-0.1-2.1c-0.6-0.5-1.4-0.5-2,0L12,9.9L8.1,6C7.5,5.4,6.6,5.4,6,6S5.4,7.5,6,8.1
	L9.9,12L6,15.9c-0.6,0.6-0.7,1.5-0.1,2.1s1.5,0.7,2.1,0.1c0,0,0.1-0.1,0.1-0.1l3.9-3.9l3.9,3.9c0.6,0.6,1.5,0.6,2.1,0s0.6-1.5,0-2.1
	L14.1,12z"/>
</svg>
