<?xml version="1.0" encoding="utf-8"?>
<!-- Generator: Adobe Illustrator 25.2.1, SVG Export Plug-In . SVG Version: 6.00 Build 0)  -->
<svg version="1.1" id="Bold" xmlns="http://www.w3.org/2000/svg" xmlns:xlink="http://www.w3.org/1999/xlink" x="0px" y="0px"
	 viewBox="0 0 24 24" style="enable-background:new 0 0 24 24;" xml:space="preserve">
<style type="text/css">
	.st0{fill:#F7FF8D;}
</style>
<path class="st0" d="M0.9,10.6l9.3,5.6c1.1,0.7,2.5,0.7,3.6,0l9.3-5.6c0.9-0.5,1.2-1.7,0.6-2.6c-0.2-0.3-0.4-0.5-0.6-0.6l-9.3-5.6
	c-1.1-0.7-2.5-0.7-3.6,0l0,0L0.9,7.4C0,7.9-0.3,9.1,0.3,10C0.4,10.2,0.6,10.4,0.9,10.6L0.9,10.6z M11.7,4.4c0.2-0.1,0.4-0.1,0.5,0
	L19.9,9l-7.7,4.6c-0.2,0.1-0.4,0.1-0.5,0L4.1,9L11.7,4.4z"/>
<path class="st0" d="M13.3,18.8c-0.8,0.5-1.8,0.5-2.6,0l-8.4-5.1c-0.7-0.4-1.6-0.2-2.1,0.5C0.1,14.5,0,14.8,0,15.1l0,0
	c0,0.5,0.3,1,0.7,1.3l8.4,5.1c1.7,1,3.9,1,5.7,0l8.4-5.1c0.5-0.3,0.7-0.8,0.7-1.3l0,0c0-0.8-0.7-1.5-1.5-1.5c-0.3,0-0.5,0.1-0.8,0.2
	L13.3,18.8z"/>
</svg>
