<?xml version="1.0" encoding="utf-8"?>
<!-- Generator: Adobe Illustrator 25.2.1, SVG Export Plug-In . SVG Version: 6.00 Build 0)  -->
<svg version="1.1" id="Bold" xmlns="http://www.w3.org/2000/svg" xmlns:xlink="http://www.w3.org/1999/xlink" x="0px" y="0px"
	 viewBox="0 0 24 24" style="enable-background:new 0 0 24 24;" xml:space="preserve">
<style type="text/css">
	.st0{fill:#FFFFFF;}
</style>
<path class="st0" d="M12,7.6c-2.4,0-4.4,2-4.4,4.4s2,4.4,4.4,4.4s4.4-2,4.4-4.4C16.4,9.6,14.4,7.6,12,7.6z M12,13.4
	c-0.8,0-1.4-0.6-1.4-1.4s0.6-1.4,1.4-1.4c0.8,0,1.4,0.6,1.4,1.4l0,0C13.4,12.8,12.8,13.4,12,13.4z"/>
<path class="st0" d="M22,12c0-1.5-0.4-3-1-4.4l0.5-0.4c0.7-0.5,0.8-1.4,0.4-2.1l0,0c-0.5-0.7-1.4-0.8-2.1-0.4l-0.5,0.4
	c-1.5-1.6-3.5-2.7-5.7-3V1.5C13.5,0.7,12.8,0,12,0l0,0c-0.8,0-1.5,0.7-1.5,1.5v0.6c-2.2,0.3-4.2,1.4-5.7,3L4.2,4.8
	C3.6,4.3,2.6,4.5,2.2,5.1l0,0C1.7,5.8,1.8,6.8,2.5,7.2L3,7.6c-1.4,2.8-1.4,6.1,0,8.8l-0.5,0.4c-0.7,0.5-0.8,1.4-0.4,2.1l0,0
	c0.5,0.7,1.4,0.8,2.1,0.4l0.5-0.4c1.5,1.6,3.5,2.7,5.7,3v0.6c0,0.8,0.7,1.5,1.5,1.5l0,0c0.8,0,1.5-0.7,1.5-1.5v-0.6
	c2.2-0.3,4.2-1.4,5.7-3l0.5,0.4c0.7,0.5,1.6,0.3,2.1-0.4l0,0c0.5-0.7,0.3-1.6-0.4-2.1L21,16.4C21.6,15,22,13.5,22,12z M12,19
	c-3.9,0-7-3.1-7-7s3.1-7,7-7s7,3.1,7,7C19,15.9,15.9,19,12,19z"/>
</svg>
