<?xml version="1.0" encoding="utf-8"?>
<!-- Generator: Adobe Illustrator 25.2.1, SVG Export Plug-In . SVG Version: 6.00 Build 0)  -->
<svg version="1.1" id="Layer_1" xmlns="http://www.w3.org/2000/svg" xmlns:xlink="http://www.w3.org/1999/xlink" x="0px" y="0px"
	 viewBox="0 0 24 24" style="enable-background:new 0 0 24 24;" xml:space="preserve">
<style type="text/css">
	.st0{fill:#FFFFFF;}
</style>
<path class="st0" d="M18.5,0h-5C10.6,0,8.2,2.3,8,5.2c-2.3,0.6-3.9,2.6-4,5c-2.4,0.7-4,2.8-4,5.3v3c0,3,2.5,5.5,5.5,5.5h5
	c3,0,5.5-2.5,5.5-5.5v-0.2c2-0.6,3.6-2.3,3.9-4.4c2.5-0.5,4.3-2.8,4.1-5.4v-3C24,2.5,21.5,0,18.5,0z M3,15.5C3,14.1,4.1,13,5.5,13h5
	c1.4,0,2.5,1.1,2.5,2.5v0.2l-2.1,2.1c-0.4,0.4-1,0.4-1.4,0c0,0,0,0,0,0L9,17.3c-0.4-0.4-0.9-0.4-1.3-0.1L4,20.4
	c-0.6-0.5-1-1.2-1-1.9V15.5z M17,13c0,0.8-0.4,1.5-1,2c-0.3-2.8-2.6-5-5.5-5H7.1c0.2-1.2,1.3-2,2.4-2h5c1.4,0,2.5,1.1,2.5,2.5V13z
	 M21,8.5c0,0.9-0.3,1.7-1,2.2v-0.2c0-3-2.5-5.5-5.5-5.5h-3.4c0.2-1.2,1.3-2,2.4-2h5C19.9,3,21,4.1,21,5.5V8.5z M4,15.5
	C4,14.7,4.7,14,5.5,14S7,14.7,7,15.5C7,16.3,6.3,17,5.5,17S4,16.3,4,15.5z"/>
</svg>
