<?xml version="1.0" encoding="utf-8"?>
<!-- Generator: Adobe Illustrator 25.2.1, SVG Export Plug-In . SVG Version: 6.00 Build 0)  -->
<svg version="1.1" id="Bold" xmlns="http://www.w3.org/2000/svg" xmlns:xlink="http://www.w3.org/1999/xlink" x="0px" y="0px"
	 viewBox="0 0 24 24" style="enable-background:new 0 0 24 24;" xml:space="preserve">
<style type="text/css">
	.st0{fill:#8B8B8B;}
</style>
<path class="st0" d="M10.5,19.5c-0.4,0-0.8-0.2-1.1-0.4l-4.6-4.6c-1.4-1.4-1.4-3.6,0-4.9L9.4,5c0.6-0.6,1.5-0.6,2.1,0s0.6,1.5,0,2.1
	L7,11.6c-0.2,0.2-0.2,0.5,0,0.7l0,0l4.6,4.6c0.6,0.6,0.6,1.5,0,2.1C11.3,19.3,10.9,19.5,10.5,19.5z"/>
<path class="st0" d="M17.5,19.5c-0.4,0-0.8-0.2-1.1-0.4l-6-6c-0.6-0.6-0.6-1.5,0-2.1l0,0l6-6c0.6-0.6,1.5-0.6,2.1,0s0.6,1.5,0,2.1
	L13.6,12l4.9,4.9c0.6,0.6,0.6,1.5,0,2.1C18.3,19.3,17.9,19.5,17.5,19.5z"/>
</svg>
