<?xml version="1.0" encoding="utf-8"?>
<!-- Generator: Adobe Illustrator 25.2.1, SVG Export Plug-In . SVG Version: 6.00 Build 0)  -->
<svg version="1.1" id="Bold" xmlns="http://www.w3.org/2000/svg" xmlns:xlink="http://www.w3.org/1999/xlink" x="0px" y="0px"
	 viewBox="0 0 24 24" style="enable-background:new 0 0 24 24;" xml:space="preserve">
<style type="text/css">
	.st0{fill:#FFFFFF;}
</style>
<path class="st0" d="M7.8,6.7l2.8-2.8l0,13.6c0,0.8,0.7,1.5,1.5,1.5l0,0c0.8,0,1.5-0.7,1.5-1.5l0-13.6l2.8,2.8
	c0.6,0.6,1.5,0.6,2.1,0s0.6-1.5,0-2.1c0,0,0,0,0,0l-3.2-3.2c-1.8-1.8-4.6-1.8-6.4,0c0,0,0,0,0,0L5.6,4.5c-0.6,0.6-0.6,1.5,0,2.1
	C6.3,7.2,7.2,7.2,7.8,6.7z"/>
<path class="st0" d="M22.5,14.5c-0.8,0-1.5,0.7-1.5,1.5v4.6c0,0.2-0.2,0.4-0.4,0.4H3.4C3.2,21,3,20.8,3,20.6V16
	c0-0.8-0.7-1.5-1.5-1.5S0,15.2,0,16v4.6C0,22.5,1.5,24,3.4,24h17.2c1.9,0,3.4-1.5,3.4-3.4V16C24,15.2,23.3,14.5,22.5,14.5z"/>
</svg>
