<?xml version="1.0" encoding="utf-8"?>
<!-- Generator: Adobe Illustrator 25.2.1, SVG Export Plug-In . SVG Version: 6.00 Build 0)  -->
<svg version="1.1" id="Bold" xmlns="http://www.w3.org/2000/svg" xmlns:xlink="http://www.w3.org/1999/xlink" x="0px" y="0px"
	 viewBox="0 0 24 24" style="enable-background:new 0 0 24 24;" xml:space="preserve">
<style type="text/css">
	.st0{fill:#FFFFFF;}
</style>
<path class="st0" d="M22.8,8c-1-1.3-2.6-2-4.3-2h-2l0.1-0.5c0.4-2.2-1.1-4.2-3.2-4.6c-0.2,0-0.5-0.1-0.7-0.1c-1.5,0-2.9,0.8-3.6,2.2
	L7.6,6H5.5C2.5,6,0,8.5,0,11.5v5c0,3,2.5,5.5,5.5,5.5h12c2.6,0,4.8-1.8,5.4-4.4l1.1-5C24.3,11,23.9,9.3,22.8,8z M3,16.5v-5
	C3,10.1,4.1,9,5.5,9H7v10H5.5C4.1,19,3,17.9,3,16.5z M21,12L20,17c-0.2,1.2-1.3,2-2.4,2H10V7.9l1.8-3.5c0.2-0.4,0.6-0.6,1-0.5
	c0.5,0,1,0.4,1,1c0,0.1,0,0.1,0,0.2L13,9h5.6c1.4,0,2.5,1.1,2.5,2.5C21.1,11.7,21,11.8,21,12z"/>
</svg>
