<svg id="Bold" xmlns="http://www.w3.org/2000/svg" viewBox="0 0 24 24"><title>55 ai file</title><polygon points="6.139 6.083 7.502 6.083 6.823 4.285 6.139 6.083"/><path d="M19.5,0H4.5A4.505,4.505,0,0,0,0,4.5v15A4.505,4.505,0,0,0,4.5,24H16.484a4.467,4.467,0,0,0,3.182-1.318l3.016-3.015A4.472,4.472,0,0,0,24,16.485V4.5A4.505,4.505,0,0,0,19.5,0ZM9.479,7.779a.625.625,0,0,1-1.17.442l-.335-.888H5.663l-.339.889a.625.625,0,0,1-1.168-.444L6.131,2.591a.748.748,0,0,1,.695-.477h0a.742.742,0,0,1,.687.462Zm1.128-5.04a.625.625,0,0,1,1.25,0V8a.625.625,0,0,1-1.25,0ZM17,15a2,2,0,0,0-2,2v4H4.5A1.5,1.5,0,0,1,3,19.5V11H21v4Z"/></svg>