<svg id="Layer_1" data-name="Layer 1" xmlns="http://www.w3.org/2000/svg" viewBox="0 0 24 24"><path d="M18.5,0H5.5A5.506,5.506,0,0,0,0,5.5v13A5.506,5.506,0,0,0,5.5,24h13A5.506,5.506,0,0,0,24,18.5V5.5A5.506,5.506,0,0,0,18.5,0ZM21,18.5A2.5,2.5,0,0,1,18.5,21H5.5A2.5,2.5,0,0,1,3,18.5V5.5A2.5,2.5,0,0,1,5.5,3h13A2.5,2.5,0,0,1,21,5.5Zm-2-10a1.5,1.5,0,0,1-3,0,.5.5,0,0,0-.5-.5h-2v8a1.5,1.5,0,0,1,0,3h-3a1.5,1.5,0,0,1,0-3V8h-2a.5.5,0,0,0-.5.5,1.5,1.5,0,0,1-3,0A3.5,3.5,0,0,1,8.5,5h7A3.5,3.5,0,0,1,19,8.5Z"/></svg>