<svg id="Layer_1" data-name="Layer 1" xmlns="http://www.w3.org/2000/svg" viewBox="0 0 24 24"><path d="M4.863,2.855l1.55-.442L6.855.863a1.191,1.191,0,0,1,2.29,0l.442,1.55,1.55.442a1.191,1.191,0,0,1,0,2.29l-1.55.442-.442,1.55a1.191,1.191,0,0,1-2.29,0l-.442-1.55-1.55-.442A1.191,1.191,0,0,1,4.863,2.855Zm18.274,12-1.55-.442-.442-1.55a1.191,1.191,0,0,0-2.29,0l-.442,1.55-1.55.442a1.191,1.191,0,0,0,0,2.29l1.55.442.442,1.55a1.191,1.191,0,0,0,2.29,0l.442-1.55,1.55-.442A1.191,1.191,0,0,0,23.137,14.855ZM17.755,4.5l1.356.387L19.5,6.244a1.042,1.042,0,0,0,2,0l.387-1.355L23.245,4.5a1.042,1.042,0,0,0,0-2l-1.356-.387L21.5.755a1.042,1.042,0,0,0-2,0l-.387,1.356L17.755,2.5A1.042,1.042,0,0,0,17.755,4.5Zm-.6,8.148L6.686,22.864a3.926,3.926,0,0,1-5.537-.013,3.929,3.929,0,0,1,0-5.55L11.673,7.033a3.923,3.923,0,0,1,6.664,2.832A3.894,3.894,0,0,1,17.153,12.65Zm-6.18,1.839L9.666,13.182,3.257,19.435a.921.921,0,0,0,.014,1.294.943.943,0,0,0,1.306,0Zm4.364-4.642a.924.924,0,0,0-1.569-.667l-1.955,1.907,1.307,1.307L15.059,10.5A.92.92,0,0,0,15.337,9.847Z"/></svg>