<svg id="Bold" xmlns="http://www.w3.org/2000/svg" viewBox="0 0 24 24"><title>190 upload</title><path d="M7.76,6.65l2.781-2.782L10.562,17.5a1.5,1.5,0,0,0,1.5,1.5h0a1.5,1.5,0,0,0,1.5-1.5L13.541,3.885,16.306,6.65a1.5,1.5,0,1,0,2.121-2.121L15.215,1.317a4.5,4.5,0,0,0-6.364,0L5.639,4.529A1.5,1.5,0,0,0,7.76,6.65Z"/><path d="M22.5,14.5A1.5,1.5,0,0,0,21,16v4.591a.41.41,0,0,1-.409.409H3.409A.41.41,0,0,1,3,20.591V16a1.5,1.5,0,0,0-3,0v4.591A3.413,3.413,0,0,0,3.409,24H20.591A3.413,3.413,0,0,0,24,20.591V16A1.5,1.5,0,0,0,22.5,14.5Z"/></svg>