<?xml version="1.0" encoding="utf-8"?>
<!-- Generator: Adobe Illustrator 25.2.1, SVG Export Plug-In . SVG Version: 6.00 Build 0)  -->
<svg version="1.1" id="Layer_1" xmlns="http://www.w3.org/2000/svg" xmlns:xlink="http://www.w3.org/1999/xlink" x="0px" y="0px"
	 viewBox="0 0 24 24" style="enable-background:new 0 0 24 24;" xml:space="preserve">
<style type="text/css">
	.st0{fill:#FFFFFF;}
</style>
<path class="st0" d="M22.5,13H22V5.5c0-3-2.5-5.5-5.5-5.5h-9C4.5,0,2,2.5,2,5.5V13H1.5C0.7,13,0,13.7,0,14.5S0.7,16,1.5,16h9v3H9
	c-1.9,0-3.5,1.6-3.5,3.5l0,0C5.5,23.3,6.2,24,7,24s1.5-0.7,1.5-1.5C8.5,22.2,8.7,22,9,22h6c0.3,0,0.5,0.2,0.5,0.5
	c0,0.8,0.7,1.5,1.5,1.5s1.5-0.7,1.5-1.5c0-1.9-1.6-3.5-3.5-3.5l0,0h-1.5v-3h9c0.8,0,1.5-0.7,1.5-1.5S23.3,13,22.5,13z M5,5.5
	C5,4.1,6.1,3,7.5,3h9C17.9,3,19,4.1,19,5.5V13H5V5.5z"/>
</svg>
