<?xml version="1.0" encoding="utf-8"?>
<!-- Generator: Adobe Illustrator 25.2.1, SVG Export Plug-In . SVG Version: 6.00 Build 0)  -->
<svg version="1.1" id="Layer_1" xmlns="http://www.w3.org/2000/svg" xmlns:xlink="http://www.w3.org/1999/xlink" x="0px" y="0px"
	 viewBox="0 0 24 24" style="enable-background:new 0 0 24 24;" xml:space="preserve">
<style type="text/css">
	.st0{fill:#F7FF8D;}
</style>
<path class="st0" d="M18.5,0h-13C2.5,0,0,2.5,0,5.5v13c0,3,2.5,5.5,5.5,5.5h13c3,0,5.5-2.5,5.5-5.5v-13C24,2.5,21.5,0,18.5,0z
	 M21,18.5c0,1.4-1.1,2.5-2.5,2.5h-13C4.1,21,3,19.9,3,18.5v-13C3,4.1,4.1,3,5.5,3h13C19.9,3,21,4.1,21,5.5V18.5z M19,8.5
	c0,0.8-0.7,1.5-1.5,1.5S16,9.3,16,8.5C16,8.2,15.8,8,15.5,8h-2v8c0.8,0,1.5,0.7,1.5,1.5S14.3,19,13.5,19h-3C9.7,19,9,18.3,9,17.5
	S9.7,16,10.5,16V8h-2C8.2,8,8,8.2,8,8.5C8,9.3,7.3,10,6.5,10S5,9.3,5,8.5C5,6.6,6.6,5,8.5,5h7C17.4,5,19,6.6,19,8.5z"/>
</svg>
