<?xml version="1.0" encoding="utf-8"?>
<!-- Generator: Adobe Illustrator 25.2.1, SVG Export Plug-In . SVG Version: 6.00 Build 0)  -->
<svg version="1.1" id="Bold" xmlns="http://www.w3.org/2000/svg" xmlns:xlink="http://www.w3.org/1999/xlink" x="0px" y="0px"
	 viewBox="0 0 24 24" style="enable-background:new 0 0 24 24;" xml:space="preserve">
<style type="text/css">
	.st0{fill:#FFFFFF;}
</style>
<path class="st0" d="M23.9,11.7l-1.1-5c-0.5-2.5-2.8-4.4-5.4-4.4h-12C2.5,2.4,0,4.8,0,7.9v5c0,3,2.5,5.5,5.5,5.5h2.1l1.5,3
	c0.7,1.4,2.1,2.2,3.6,2.2c2.2,0,4-1.8,4-3.9c0-0.2,0-0.4-0.1-0.7l-0.1-0.5h2c3,0,5.5-2.5,5.5-5.5C24.1,12.5,24,12.1,23.9,11.7
	L23.9,11.7z M3,12.9v-5c0-1.4,1.1-2.5,2.5-2.5H7v10H5.5C4.1,15.4,3,14.2,3,12.9z M20.5,14.4c-0.5,0.6-1.2,0.9-1.9,0.9H13l0.7,4
	c0,0.3,0,0.6-0.2,0.8c-0.2,0.2-0.5,0.4-0.8,0.3c-0.4,0-0.7-0.2-0.9-0.5L10,16.5V5.4h7.5c1.2,0,2.2,0.8,2.4,2l1.1,5
	C21.2,13.1,21,13.8,20.5,14.4z"/>
</svg>
