<?xml version="1.0" encoding="utf-8"?>
<!-- Generator: Adobe Illustrator 25.2.1, SVG Export Plug-In . SVG Version: 6.00 Build 0)  -->
<svg version="1.1" id="Layer_1" xmlns="http://www.w3.org/2000/svg" xmlns:xlink="http://www.w3.org/1999/xlink" x="0px" y="0px"
	 viewBox="0 0 24 24" style="enable-background:new 0 0 24 24;" xml:space="preserve">
<style type="text/css">
	.st0{fill:#FFFFFF;}
</style>
<path class="st0" d="M23,1c-1.3-1.3-3.3-1.4-4.7-0.2L5.6,11.8c-2.1,0.5-5.6,1.8-5.6,5c0,4,3.2,7.2,7.2,7.2c3.3,0,4.6-3.6,5-5.6
	L23.2,5.7C24.3,4.3,24.3,2.3,23,1z M7.2,21C4.9,21,3,19.1,3,16.8c0,0,0,0,0,0c0-1.1,2.1-1.9,3.7-2.2l2.7,2.7C9.1,18.9,8.3,21,7.2,21
	z M20.9,3.8L14.7,11L13,9.3l7.2-6.2c0.2-0.2,0.5-0.1,0.7,0.1C21,3.3,21,3.6,20.9,3.8L20.9,3.8z"/>
</svg>
