<?xml version="1.0" encoding="utf-8"?>
<!-- Generator: Adobe Illustrator 25.2.1, SVG Export Plug-In . SVG Version: 6.00 Build 0)  -->
<svg version="1.1" id="Layer_1" xmlns="http://www.w3.org/2000/svg" xmlns:xlink="http://www.w3.org/1999/xlink" x="0px" y="0px"
	 viewBox="0 0 24 24" style="enable-background:new 0 0 24 24;" xml:space="preserve">
<style type="text/css">
	.st0{fill:#FFFFFF;}
</style>
<path class="st0" d="M18.5,24c-0.8,0-1.5-0.7-1.5-1.5s0.7-1.5,1.5-1.5c1.4,0,2.5-1.1,2.5-2.5c0-0.8,0.7-1.5,1.5-1.5s1.5,0.7,1.5,1.5
	C24,21.5,21.5,24,18.5,24z M24,5.5c0-3-2.5-5.5-5.5-5.5C17.7,0,17,0.7,17,1.5S17.7,3,18.5,3C19.9,3,21,4.1,21,5.5
	C21,6.3,21.7,7,22.5,7S24,6.3,24,5.5z M24,13.5v-3C24,9.7,23.3,9,22.5,9S21,9.7,21,10.5v3c0,0.8,0.7,1.5,1.5,1.5S24,14.3,24,13.5z
	 M7,22.5C7,21.7,6.3,21,5.5,21C4.1,21,3,19.9,3,18.5C3,17.7,2.3,17,1.5,17S0,17.7,0,18.5c0,3,2.5,5.5,5.5,5.5C6.3,24,7,23.3,7,22.5z
	 M3,5.5C3,4.1,4.1,3,5.5,3C6.3,3,7,2.3,7,1.5S6.3,0,5.5,0C2.5,0,0,2.5,0,5.5C0,6.3,0.7,7,1.5,7S3,6.3,3,5.5z M3,13.5v-3
	C3,9.7,2.3,9,1.5,9S0,9.7,0,10.5v3C0,14.3,0.7,15,1.5,15S3,14.3,3,13.5z M15,1.5C15,0.7,14.3,0,13.5,0h-3C9.7,0,9,0.7,9,1.5
	S9.7,3,10.5,3h3C14.3,3,15,2.3,15,1.5z M15,22.5c0-0.8-0.7-1.5-1.5-1.5h-3C9.7,21,9,21.7,9,22.5S9.7,24,10.5,24h3
	C14.3,24,15,23.3,15,22.5z"/>
</svg>
