<?xml version="1.0" encoding="utf-8"?>
<!-- Generator: Adobe Illustrator 25.2.1, SVG Export Plug-In . SVG Version: 6.00 Build 0)  -->
<svg version="1.1" id="Bold" xmlns="http://www.w3.org/2000/svg" xmlns:xlink="http://www.w3.org/1999/xlink" x="0px" y="0px"
	 viewBox="0 0 24 24" style="enable-background:new 0 0 24 24;" xml:space="preserve">
<style type="text/css">
	.st0{fill:#8B8B8B;}
</style>
<path class="st0" d="M21,21.9c0-2.5-2-4.5-4.5-4.5h-5.7v1.7c0,1.2-1,2.2-2.2,2.2C8,21.3,7.4,21,7,20.6l-6.2-6.7c-1-1.1-1-2.9,0-4
	L7,3.3c0.8-0.9,2.2-0.9,3.1-0.1c0.5,0.4,0.7,1,0.7,1.6v1.7h3.7c5.2,0,9.5,4.3,9.5,9.5v6c0,0.8-0.7,1.5-1.5,1.5S21,22.8,21,21.9z
	 M21,15.9L21,15.9c0-3.6-2.9-6.5-6.5-6.5H9.3c-0.8,0-1.5-0.7-1.5-1.5V6.7L3,11.9l4.9,5.2v-1.2c0-0.8,0.7-1.5,1.5-1.5h7.2
	C18.1,14.4,19.7,15,21,15.9L21,15.9z M9.2,5.3L9.2,5.3L9.2,5.3z"/>
</svg>
