<?xml version="1.0" encoding="utf-8"?>
<!-- Generator: Adobe Illustrator 25.2.1, SVG Export Plug-In . SVG Version: 6.00 Build 0)  -->
<svg version="1.1" id="Bold" xmlns="http://www.w3.org/2000/svg" xmlns:xlink="http://www.w3.org/1999/xlink" x="0px" y="0px"
	 viewBox="0 0 24 24" style="enable-background:new 0 0 24 24;" xml:space="preserve">
<style type="text/css">
	.st0{fill:#FFFFFF;}
</style>
<path class="st0" d="M6.4,5.2c0.5,0,0.9-0.4,0.9-0.9c0-0.5-0.4-0.9-0.9-0.9H5.5l0,1.7L6.4,5.2z"/>
<path class="st0" d="M17.2,7.4c1,0,1.4-1,1.4-1.9s-0.4-1.9-1.4-1.9h-0.8l0,3.9C16.7,7.4,17,7.4,17.2,7.4z"/>
<path class="st0" d="M19.5,0h-15C2,0,0,2,0,4.5v15C0,22,2,24,4.5,24h12c1.2,0,2.3-0.5,3.2-1.3l3-3c0.8-0.8,1.3-2,1.3-3.2v-12
	C24,2,22,0,19.5,0z M15.1,3c0-0.3,0.3-0.6,0.6-0.6c0,0,0,0,0,0h1.4c1.6,0,2.7,1.3,2.7,3.2c0,1.8-1.1,3.1-2.6,3.2c-0.4,0-1.5,0-1.5,0
	l0,0c-0.3,0-0.6-0.3-0.6-0.6v0c0,0,0,0,0-0.1L15.1,3z M9.3,6.8c0.2-0.2,0.5-0.2,0.8-0.1l0.1,0.1c0.2,0.2,0.5,0.4,0.8,0.5
	c0.3,0.1,0.7,0.1,1,0c0.2-0.1,0.4-0.2,0.5-0.4c0.1-0.2,0-0.4-0.1-0.6c-0.1-0.1-0.3-0.2-0.5-0.3c-0.4-0.2-0.8-0.3-1.2-0.5
	c-0.4-0.1-0.7-0.4-1-0.7C9.5,4.5,9.4,4.1,9.5,3.8c0-0.2,0.1-0.4,0.2-0.6c0.2-0.4,0.6-0.7,1-0.8c0.8-0.2,1.7-0.1,2.4,0.3
	c0.2,0.1,0.3,0.2,0.4,0.4c0.2,0.2,0.1,0.5,0,0.7C13.2,4,12.9,4,12.6,3.8c-0.3-0.1-0.5-0.2-0.8-0.3c-0.2-0.1-0.4-0.1-0.6-0.1
	c-0.2,0-0.4,0.1-0.5,0.3c-0.1,0.2,0,0.5,0.2,0.6c0.2,0.2,0.4,0.3,0.6,0.3c0.3,0.1,0.6,0.1,0.8,0.2c0.3,0.1,0.6,0.3,0.9,0.5
	c0.5,0.4,0.7,1,0.6,1.6c-0.2,1-1.1,1.7-2.2,1.7c-0.9,0-1.7-0.4-2.3-1C9.1,7.5,9.1,7.1,9.3,6.8C9.3,6.8,9.3,6.8,9.3,6.8z M4.3,2.9
	C4.3,2.9,4.3,2.8,4.3,2.9c0-0.1,0-0.2,0-0.2c0-0.1,0.1-0.1,0.1-0.2v0l0,0c0.1-0.1,0.1-0.1,0.2-0.1c0.1,0,0.2,0,0.2,0h1.5
	c1.2,0,2.1,0.9,2.2,2.1c0,1.2-0.9,2.1-2.1,2.2c0,0-0.1,0-0.1,0H5.5v1.7c0,0.3-0.3,0.6-0.6,0.6S4.3,8.5,4.3,8.2L4.3,2.9z M21,15h-4
	c-1.1,0-2,0.9-2,2v4H4.5C3.7,21,3,20.3,3,19.5V11h18V15z"/>
</svg>
