<?xml version="1.0" encoding="utf-8"?>
<!-- Generator: Adobe Illustrator 25.2.1, SVG Export Plug-In . SVG Version: 6.00 Build 0)  -->
<svg version="1.1" id="Bold" xmlns="http://www.w3.org/2000/svg" xmlns:xlink="http://www.w3.org/1999/xlink" x="0px" y="0px"
	 viewBox="0 0 24 24" style="enable-background:new 0 0 24 24;" xml:space="preserve">
<style type="text/css">
	.st0{fill:#FFFFFF;}
</style>
<path class="st0" d="M22.8,1.2c-1.6-1.5-4.1-1.5-5.7,0L1.6,16.7c-1,1-1.6,2.4-1.6,3.9v1.9C0,23.3,0.7,24,1.5,24h1.9
	c1.5,0,2.9-0.6,3.9-1.6L22.8,6.9C24.4,5.3,24.4,2.7,22.8,1.2z M5.2,20.3C4.7,20.7,4.1,21,3.4,21H3v-0.4c0-0.7,0.3-1.3,0.7-1.8
	L15.3,7.3l1.4,1.4L5.2,20.3z M20.7,4.7l-1.8,1.8l-1.4-1.4l1.9-1.8c0.4-0.4,1-0.4,1.4,0C21.1,3.7,21.1,4.3,20.7,4.7z"/>
</svg>
