<svg id="Bold" xmlns="http://www.w3.org/2000/svg" viewBox="0 0 24 24"><title>95 add user</title><path d="M7.452,14.018A8.19,8.19,0,0,0,0,22.283V22.5A1.5,1.5,0,0,0,1.5,24h0A1.5,1.5,0,0,0,3,22.5v-.277a5.153,5.153,0,0,1,4.5-5.2A5.006,5.006,0,0,1,13,22v.5A1.5,1.5,0,0,0,14.5,24h0A1.5,1.5,0,0,0,16,22.5V22A8.009,8.009,0,0,0,7.452,14.018Z"/><path d="M8,12A6,6,0,1,0,2,6,6.006,6.006,0,0,0,8,12ZM8,3A3,3,0,1,1,5,6,3,3,0,0,1,8,3Z"/><path d="M22.5,10H21V8.5a1.5,1.5,0,0,0-3,0V10H16.5a1.5,1.5,0,0,0,0,3H18v1.5a1.5,1.5,0,0,0,3,0V13h1.5a1.5,1.5,0,0,0,0-3Z"/></svg>