<?xml version="1.0" encoding="utf-8"?>
<!-- Generator: Adobe Illustrator 25.2.1, SVG Export Plug-In . SVG Version: 6.00 Build 0)  -->
<svg version="1.1" id="Bold" xmlns="http://www.w3.org/2000/svg" xmlns:xlink="http://www.w3.org/1999/xlink" x="0px" y="0px"
	 viewBox="0 0 24 24" style="enable-background:new 0 0 24 24;" xml:space="preserve">
<style type="text/css">
	.st0{fill:#FFFFFF;}
</style>
<path class="st0" d="M7.7,3.5L1,13.6c-1.7,2.6-1.2,6.3,1.1,8.2c0.9,0.7,2,1.1,3.1,1.1h13.4c2.9,0,5.3-2.6,5.3-5.9
	c0-1.3-0.4-2.5-1-3.5L16.3,3.5c-1.7-2.6-5.1-3.2-7.4-1.3C8.4,2.6,8,3,7.7,3.5L7.7,3.5z M13.9,5.4l6.7,10.1c0.8,1.1,0.5,2.7-0.5,3.6
	c-0.4,0.3-0.9,0.5-1.4,0.5H5.3c-0.9,0-1.7-0.5-2.1-1.4C3.1,17.8,3,17.4,3,17c0-0.5,0.2-1.1,0.5-1.5l6.7-10.1
	c0.8-1.1,2.2-1.4,3.2-0.6C13.6,5,13.7,5.2,13.9,5.4L13.9,5.4z"/>
</svg>
