<?xml version="1.0" encoding="utf-8"?>
<!-- Generator: Adobe Illustrator 25.2.1, SVG Export Plug-In . SVG Version: 6.00 Build 0)  -->
<svg version="1.1" id="Layer_1" xmlns="http://www.w3.org/2000/svg" xmlns:xlink="http://www.w3.org/1999/xlink" x="0px" y="0px"
	 viewBox="0 0 24 24" style="enable-background:new 0 0 24 24;" xml:space="preserve">
<style type="text/css">
	.st0{fill:#FFFFFF;}
</style>
<path class="st0" d="M13.5,2.1V1.5C13.5,0.7,12.8,0,12,0s-1.5,0.7-1.5,1.5v0.6c-6,0.8-10.2,6.3-9.4,12.3c0.3,1.9,1,3.7,2.2,5.2
	C2.4,20.4,2,21.4,2,22.5C2,23.3,2.7,24,3.5,24S5,23.3,5,22.5c0-0.3,0.2-0.6,0.5-0.7c3.9,2.9,9.2,2.9,13.1,0c0.3,0.1,0.5,0.4,0.5,0.7
	c0,0.8,0.7,1.5,1.5,1.5s1.5-0.7,1.5-1.5c0-1.1-0.4-2.1-1.3-2.8c3.7-4.8,2.8-11.7-2-15.4C17.2,3.1,15.4,2.4,13.5,2.1z M4,13
	c0-4.4,3.6-8,8-8s8,3.6,8,8s-3.6,8-8,8C7.6,21,4,17.4,4,13z"/>
<path class="st0" d="M19.5,0C18.7,0,18,0.7,18,1.5S18.7,3,19.5,3c0.7-0.1,1.4,0.5,1.5,1.3c0,0.1,0,0.2,0,0.2C21,5.3,21.6,6,22.5,6
	S24,5.3,24,4.5c0.1-2.4-1.8-4.4-4.2-4.5C19.7,0,19.6,0,19.5,0z"/>
<path class="st0" d="M3,4.5C3,3.8,3.5,3.1,4.3,3c0.1,0,0.2,0,0.2,0C5.3,3,6,2.3,6,1.5S5.3,0,4.5,0C2.1-0.1,0.1,1.8,0,4.2
	c0,0.1,0,0.2,0,0.3C0,5.3,0.7,6,1.5,6C2.4,6,3,5.3,3,4.5z"/>
<path class="st0" d="M13.5,12.4V8.5C13.5,7.7,12.9,7,12,7l0,0c-0.8,0-1.5,0.7-1.5,1.5v4.3c0,0.5,0.2,1,0.6,1.4l1.8,1.8
	c0.6,0.6,1.5,0.6,2.1,0c0.6-0.6,0.6-1.5,0-2.1L13.5,12.4z"/>
</svg>
