<?xml version="1.0" encoding="utf-8"?>
<!-- Generator: Adobe Illustrator 25.2.1, SVG Export Plug-In . SVG Version: 6.00 Build 0)  -->
<svg version="1.1" id="Bold" xmlns="http://www.w3.org/2000/svg" xmlns:xlink="http://www.w3.org/1999/xlink" x="0px" y="0px"
	 viewBox="0 0 24 24" style="enable-background:new 0 0 24 24;" xml:space="preserve">
<style type="text/css">
	.st0{fill:#8B8B8B;}
</style>
<path class="st0" d="M12,0C5.4,0,0,5.4,0,12s5.4,12,12,12s12-5.4,12-12S18.6,0,12,0z M12,21c-5,0-9-4-9-9s4-9,9-9s9,4,9,9
	S17,21,12,21z"/>
<circle class="st0" cx="12" cy="17.5" r="1.5"/>
<path class="st0" d="M12.8,5c-2.3-0.4-4.5,1.1-4.9,3.4c0,0.2-0.1,0.5-0.1,0.7c0,0.8,0.7,1.5,1.5,1.5s1.5-0.7,1.5-1.5
	c0-0.7,0.6-1.2,1.3-1.2s1.2,0.6,1.2,1.3c0,0.5-0.3,0.9-0.6,1.1c-1.3,0.5-2.1,1.8-2,3.2c0,0.8,0.7,1.5,1.5,1.5s1.5-0.7,1.5-1.5
	c0-0.1,0-0.1,0-0.2c0.1-0.1,0.3-0.2,0.5-0.3c2.1-1.1,2.8-3.7,1.7-5.8C15.1,6,14,5.2,12.8,5L12.8,5z"/>
</svg>
