<?xml version="1.0" encoding="utf-8"?>
<!-- Generator: Adobe Illustrator 25.2.1, SVG Export Plug-In . SVG Version: 6.00 Build 0)  -->
<svg version="1.1" id="Bold" xmlns="http://www.w3.org/2000/svg" xmlns:xlink="http://www.w3.org/1999/xlink" x="0px" y="0px"
	 viewBox="0 0 24 24" style="enable-background:new 0 0 24 24;" xml:space="preserve">
<style type="text/css">
	.st0{fill:#FFFFFF;}
</style>
<circle class="st0" cx="16" cy="8" r="2"/>
<circle class="st0" cx="9" cy="8" r="2"/>
<circle class="st0" cx="8" cy="15" r="2"/>
<path class="st0" d="M24,10.9C23.4,4.9,18.5,0.3,12.5,0C5.9-0.2,0.3,4.9,0.1,11.6S5,23.8,11.6,24c0.2,0,0.3,0,0.5,0c0.3,0,0.7,0,1,0
	c0.8-0.1,1.4-0.7,1.4-1.5l0-3.4c0-1.6,1.3-2.9,2.8-2.9c0.8,0,1.5,0.3,2,0.8l0.1,0.1c0.6,0.6,1.4,0.8,2.2,0.6
	c0.8-0.2,1.4-0.7,1.7-1.5C23.9,14.6,24.2,12.7,24,10.9z M20.8,14.3c-2.6-1.9-6.3-1.4-8.2,1.2c-0.8,1-1.2,2.3-1.2,3.5l0,1.9
	c-5-0.4-8.7-4.7-8.3-9.6C3.4,6.7,7.4,3,12.1,3c0.1,0,0.2,0,0.3,0c4.5,0.2,8.2,3.7,8.6,8.2C21.1,12.2,21.1,13.3,20.8,14.3z"/>
</svg>
