<?xml version="1.0" encoding="utf-8"?>
<!-- Generator: Adobe Illustrator 25.2.1, SVG Export Plug-In . SVG Version: 6.00 Build 0)  -->
<svg version="1.1" id="Bold" xmlns="http://www.w3.org/2000/svg" xmlns:xlink="http://www.w3.org/1999/xlink" x="0px" y="0px"
	 viewBox="0 0 24 24" style="enable-background:new 0 0 24 24;" xml:space="preserve">
<style type="text/css">
	.st0{fill:#FFFFFF;}
</style>
<path class="st0" d="M24,11.2C23.6,4.6,17.9-0.4,11.3,0S-0.4,6.1,0,12.7C0.4,19.1,5.7,24,12,24h6.5c3,0,5.5-2.5,5.5-5.5V11.2
	L24,11.2z M21,18.5c0,1.4-1.1,2.5-2.5,2.5H12c-2.6,0-5-1.1-6.7-3c-1.7-1.9-2.5-4.5-2.2-7c0.5-4.1,3.7-7.3,7.8-7.9
	C11.2,3,11.6,3,12,3c2.1,0,4.1,0.7,5.7,2.1c1.9,1.6,3.1,3.9,3.2,6.3V18.5z"/>
<path class="st0" d="M9.5,11h3c0.8,0,1.5-0.7,1.5-1.5S13.3,8,12.5,8h-3C8.7,8,8,8.7,8,9.5S8.7,11,9.5,11z"/>
<path class="st0" d="M16.5,13h-7C8.7,13,8,13.7,8,14.5S8.7,16,9.5,16h7c0.8,0,1.5-0.7,1.5-1.5S17.3,13,16.5,13z"/>
</svg>
