<?xml version="1.0" encoding="utf-8"?>
<!-- Generator: Adobe Illustrator 25.2.1, SVG Export Plug-In . SVG Version: 6.00 Build 0)  -->
<svg version="1.1" id="Bold" xmlns="http://www.w3.org/2000/svg" xmlns:xlink="http://www.w3.org/1999/xlink" x="0px" y="0px"
	 viewBox="0 0 24 24" style="enable-background:new 0 0 24 24;" xml:space="preserve">
<style type="text/css">
	.st0{fill:#F7FF8D;}
</style>
<path class="st0" d="M21.5,2h-8C12.1,2,11,3.1,11,4.5v0.3L9.7,2.6C9.4,2,8.9,1.6,8.2,1.4C7.1,1.1,5.9,1.5,5.4,2.5l-5,8.6
	C0,11.7-0.1,12.4,0.1,13c0.3,1.2,1.3,2,2.4,2h2.7c-1.1,3.8,1.1,7.7,4.9,8.7c3.8,1.1,7.7-1.1,8.7-4.9c0.4-1.3,0.4-2.6,0-3.9h2.7
	c1.4,0,2.5-1.1,2.5-2.5v-8C24,3.1,22.9,2,21.5,2z M3.4,12l4.2-7.2l3,5.2C9.2,10.3,8,11,7,12H3.4z M12,21c-2.3,0-4.1-1.8-4.1-4.1
	s1.8-4.1,4.1-4.1s4.1,1.8,4.1,4.1l0,0C16.1,19.2,14.2,21,12,21z M21,12h-3.9c-0.8-0.8-1.8-1.5-3-1.8L14,10V5h7V12z"/>
</svg>
