<?xml version="1.0" encoding="utf-8"?>
<!-- Generator: Adobe Illustrator 25.2.1, SVG Export Plug-In . SVG Version: 6.00 Build 0)  -->
<svg version="1.1" id="Bold" xmlns="http://www.w3.org/2000/svg" xmlns:xlink="http://www.w3.org/1999/xlink" x="0px" y="0px"
	 viewBox="0 0 24 24" style="enable-background:new 0 0 24 24;" xml:space="preserve">
<style type="text/css">
	.st0{fill:#F7FF8D;}
</style>
<path class="st0" d="M15.5,0h-7C5.5,0,3,2.5,3,5.5v13c0,3,2.5,5.5,5.5,5.5h7c3,0,5.5-2.5,5.5-5.5v-13C21,2.5,18.5,0,15.5,0z
	 M18,18.5c0,1.4-1.1,2.5-2.5,2.5h-7C7.1,21,6,19.9,6,18.5v-13C6,4.1,7.1,3,8.5,3h7C16.9,3,18,4.1,18,5.5V18.5z"/>
</svg>
