<svg id="Layer_1" data-name="Layer 1" xmlns="http://www.w3.org/2000/svg" viewBox="0 0 24 24"><path d="M24,3.941a3.89,3.89,0,0,0-1.149-2.8,3.941,3.941,0,0,0-5.516-.034L7.164,11.033a5.964,5.964,0,0,0-4.4,1.737h0C1.147,14.389.246,18.542.035,20.007A3.507,3.507,0,0,0,3.5,24.015a3.561,3.561,0,0,0,.513-.037c1.463-.21,5.615-1.11,7.235-2.73a5.96,5.96,0,0,0,1.691-4.881l9.88-9.641A3.894,3.894,0,0,0,24,3.941ZM9.123,19.127c-.652.651-3.346,1.566-5.541,1.882a.505.505,0,0,1-.577-.576c.316-2.2,1.231-4.89,1.882-5.542a3,3,0,0,1,4.236,0,2.964,2.964,0,0,1,.728,1.234,1.435,1.435,0,0,0,.1.356A2.994,2.994,0,0,1,9.123,19.127Zm11.6-14.549-9,8.779a5.878,5.878,0,0,0-.479-.587,5.987,5.987,0,0,0-.851-.7L19.43,3.256a.928.928,0,0,1,1.3.008.922.922,0,0,1-.008,1.314Z"/></svg>